<svg height="492pt" viewBox="0 1 492 492.584" width="492pt" xmlns="http://www.w3.org/2000/svg" xmlns:xlink="http://www.w3.org/1999/xlink"><linearGradient id="a"><stop offset="0" stop-color="#fc4a1a"/><stop offset="1" stop-color="#f7b733"/></linearGradient><linearGradient id="b" gradientTransform="matrix(1.000845 0 0 -1.000845 .291878 500.422263)" gradientUnits="userSpaceOnUse" x1="-14.9154" x2="509.3418" xlink:href="#a" y1="352.2248" y2="352.2248"/><linearGradient id="c" gradientTransform="matrix(1.000845 0 0 -1.000845 .291878 500.422263)" gradientUnits="userSpaceOnUse" x1="-14.9154" x2="509.3418" xlink:href="#a" y1="327.5956" y2="327.5956"/><linearGradient id="d" gradientTransform="matrix(1.000845 0 0 -1.000845 .291878 500.422263)" gradientUnits="userSpaceOnUse" x1="-14.9155" x2="509.3415" xlink:href="#a" y1="253.708" y2="253.708"/><path d="m189.273438 147.898438c.003906-4.535157-3.675782-8.214844-8.210938-8.214844h-.003906-16.433594c-4.535156 0-8.214844 3.679687-8.214844 8.214844 0 4.539062 3.679688 8.21875 8.214844 8.21875h16.433594c4.539062 0 8.214844-3.675782 8.21875-8.214844-.003906 0-.003906 0-.003906-.003906zm0 0" fill="url(#b)"/><path d="m205.710938 164.332031h-16.433594c-4.539063 0-8.21875 3.679688-8.21875 8.21875 0 4.539063 3.679687 8.214844 8.21875 8.214844h16.433594c4.535156 0 8.214843-3.675781 8.214843-8.214844 0-4.539062-3.679687-8.21875-8.214843-8.21875zm0 0" fill="url(#c)"/><path d="m.917969 54.371094c-1.273438 3.070312-.570313 6.605468 1.78125 8.953125l219.441406 219.445312v154.339844l-93.621094 40.125c-4.167969 1.785156-6.101562 6.617187-4.3125 10.785156 1.292969 3.023438 4.265625 4.980469 7.550781 4.980469h230.066407c4.539062 0 8.214843-3.679688 8.214843-8.214844 0-3.285156-1.957031-6.257812-4.976562-7.550781l-93.621094-40.125v-154.339844l219.445313-219.445312c3.207031-3.207031 3.207031-8.410157 0-11.617188-1.542969-1.542969-3.632813-2.40625-5.8125-2.40625h-125.804688c-2.796875-3.128906-5.851562-6.015625-9.132812-8.632812 10.019531-14.851563 26.644531-23.894531 44.554687-24.234375 4.539063 0 8.21875-3.679688 8.21875-8.21875 0-4.535156-3.679687-8.214844-8.21875-8.214844-23.5625.390625-45.421875 12.363281-58.4375 32.007812-29.574218-14.34375-65.078125-7.277343-86.90625 17.292969h-240.839844c-3.320312-.003906-6.316406 2-7.589843 5.070313zm170.875 422.195312 75-32.144531 75 32.144531zm83.214843-46.5-4.976562-2.132812c-2.070312-.882813-4.410156-.882813-6.476562 0l-4.980469 2.132812v-130.863281l2.410156 2.40625c3.203125 3.207031 8.40625 3.210937 11.613281.003906 0 0 .003906-.003906.003906-.003906l2.40625-2.40625zm-8.214843-145.886718-169.148438-169.148438h154.617188c9.039062 39.792969 48.621093 64.722656 88.410156 55.683594 27.730469-6.296875 49.382813-27.953125 55.683594-55.683594h39.585937zm10.382812-218.445313h65.058594c-.996094 5.421875-1.492187 10.921875-1.492187 16.433594 0 4.535156 3.679687 8.214843 8.21875 8.214843 4.535156 0 8.214843-3.679687 8.214843-8.214843.015625-5.53125.652344-11.046875 1.894531-16.433594h12.371094c6.761719 9.625 10.386719 21.101563 10.386719 32.867187h-115.035156c-.003907-11.765624 3.621093-23.242187 10.382812-32.867187zm6.886719 49.296875c2.683594 14.304688 12.140625 24.652344 23.8125 24.652344 4.539062 0 8.21875-3.679688 8.21875-8.21875 0-4.535156-3.679688-8.214844-8.21875-8.214844-2.300781 0-5.285156-3.074219-6.945312-8.21875h78.472656c-9.054688 30.429688-41.066406 47.753906-71.492188 38.695312-18.601562-5.539062-33.15625-20.089843-38.695312-38.695312zm201.175781-49.296875-32.867187 32.867187h-54.113282c-.007812-11.414062-2.679687-22.667968-7.800781-32.867187zm-160.929687-24.652344c8.265625.007813 16.429687 1.808594 23.929687 5.28125-.429687.980469-.882812 1.941407-1.277343 2.9375h-52.121094c8.890625-5.371093 19.082031-8.210937 29.46875-8.21875zm-66.148438 24.652344c-5.121094 10.199219-7.792968 21.453125-7.800781 32.867187h-169.148437l-32.867188-32.867187zm0 0" fill="url(#d)"/></svg>